<svg width="13" height="18" viewBox="0 0 13 18" fill="none" xmlns="http://www.w3.org/2000/svg">
<path d="M8.10926 7.81326L10.6937 5.84451L11.8412 3.36849C11.0773 1.91008 9.75786 0.787131 8.17166 0.289062L5.78666 1.89985L4.43359 4.73383C4.87336 4.20099 5.53302 3.86554 6.2745 3.86554C7.60606 3.86554 8.67076 4.94247 8.67076 6.26179C8.66976 6.8519 8.45696 7.39599 8.10926 7.81326Z" fill="#4285F4"/>
<path d="M6.27348 0C4.34053 0 2.62746 0.868295 1.46973 2.24591L2.57223 4.05205L4.4336 4.73523C4.44485 4.72398 8.17267 0.290455 8.17267 0.290455C7.57027 0.104318 6.93314 0 6.27348 0Z" fill="#1A73E8"/>
<path d="M8.10936 7.81364C7.66956 8.33421 7.015 8.67068 6.27352 8.67068C4.94193 8.67068 3.87727 7.59375 3.87727 6.27443C3.87727 5.70682 4.10841 5.14023 4.43261 4.73523L1.68659 6.69887L0.625 9.27205C1.28466 10.7069 2.37284 11.8647 3.49579 13.3118L6.4392 10.9698L8.10936 7.81364Z" fill="#FBBC04"/>
<path d="M12.559 6.2747C12.559 5.22129 12.2931 4.23743 11.8411 3.36914L3.49463 13.3121C3.86486 13.7866 4.22383 14.296 4.58281 14.8513C5.85713 16.82 5.47463 18.0003 6.28565 18.0003C7.10792 18.0003 6.74895 16.82 8.02224 14.8513C10.1167 11.5755 12.559 10.0823 12.559 6.2747Z" fill="#34A853"/>
<path d="M4.43352 4.73421L1.46966 2.24591C0.55534 3.33409 0 4.74648 0 6.27443C0 7.45466 0.23114 8.41603 0.62489 9.27205L4.43352 4.73421Z" fill="#EA4335"/>
</svg>
